<svg id="svgQrWrapper" viewBox="0 0 300 300" xmlns="http://www.w3.org/2000/svg" xmlns:xlink="http://www.w3.org/1999/xlink" style="width: 100%; height: 100%; background-color: rgb(255, 255, 255);"><svg xmlns="http://www.w3.org/2000/svg" viewBox="0 0 1400 1400" width="300" height="300" fill="none"><g transform=""><defs><style>.cls-3hol2{fill:#fbe221}.cls-3hol3{fill:#f97923}.cls-3hol4{fill:#ff4eb1}.cls-3hol5{fill:#f74f1c}</style></defs><path d="M597.81 291.62H454.17c-61.51 0-112.73 44.76-122.83 103.42-1.18 6.9-1.8 13.98-1.8 21.2v197.19c-5.93-1.62-11.77-3.48-17.5-5.56-5.95-2.16-11.79-4.55-17.5-7.18a229.763 229.763 0 0 1-57.14-37.43c-1.58-1.39-3.14-2.82-4.68-4.28-4.84-4.56-9.48-9.32-13.9-14.28-36.34-40.68-58.42-94.35-58.42-153.19 0-127.07 103.01-230.08 230.08-230.08 72.66 0 137.46 33.68 179.63 86.28.01.03.03.04.05.05.57.72 1.13 1.43 1.71 2.17 1.71 2.2 3.39 4.43 5.03 6.69a228.4 228.4 0 0 1 11.51 17.5c3.38 5.68 6.52 11.52 9.4 17.5Z" class="cls-3hol3"/><path d="M602.39 291.62H454.17c-61.51 0-112.73 44.76-122.83 103.42-3.64-12.49-5.65-25.69-5.78-39.33v-1.43c0-13.66 1.88-26.88 5.4-39.42 17.19-61.2 73.4-106.07 140.08-106.07 38.27 0 73.09 14.77 99.07 38.92.01.03.03.04.05.05.67.63 1.33 1.26 1.99 1.89 2.32 2.25 4.57 4.58 6.75 6.97 4.95 5.47 9.5 11.32 13.58 17.5a144.55 144.55 0 0 1 9.91 17.5Z" class="cls-3hol2"/><path d="M934.84 291.62H539.9a228.62 228.62 0 0 1 11.61-17.5c4.43-6.07 9.15-11.91 14.16-17.5 2.01-2.27 4.09-4.5 6.2-6.69.09-.09.18-.19.28-.28 41.6-42.94 99.8-69.7 164.26-69.96h.96c4.96 0 9.88.16 14.76.47 35.2 2.22 68.26 12.37 97.4 28.67a230.903 230.903 0 0 1 59.54 47.8c5.01 5.59 9.73 11.43 14.16 17.5 4.13 5.64 8 11.48 11.61 17.5Z" class="cls-3hol4"/><path d="M1304.62 391.51c0 65.53-23.85 125.5-63.37 171.67-1.34 1.57-2.7 3.12-4.08 4.66a264.158 264.158 0 0 1-30.46 28.99 263.155 263.155 0 0 1-58.14 35.81c-5.73 2.58-11.56 4.96-17.5 7.12V416.24c0-45.5-24.51-85.37-61.01-107.13-3.31-1.97-6.71-3.79-10.2-5.46-16.2-7.71-34.32-12.03-53.42-12.03H795.72c2.42-5.95 5.06-11.78 7.9-17.5 2.97-5.97 6.15-11.8 9.54-17.5a265.093 265.093 0 0 1 36.37-47.8 265.248 265.248 0 0 1 59.18-46.42c3.32-1.91 6.7-3.76 10.12-5.53 36.39-18.9 77.73-29.58 121.57-29.58 145.93 0 264.22 118.3 264.22 264.22Z" class="cls-3hol5"/><path d="M1252.1 719.37c0 59.36-27.49 112.3-70.44 146.79-4.99 4-10.2 7.76-15.59 11.25a187.614 187.614 0 0 1-35 17.77V543.56c5.99 2.29 11.83 4.87 17.5 7.74 6.03 3.03 11.87 6.38 17.5 10.03 15.2 9.84 28.89 21.82 40.64 35.5 28.29 32.92 45.39 75.73 45.39 122.54Z" class="cls-3hol4"/><path d="M1236.19 1014.86c0 127.03-102.98 230.01-230 230.01-54.39 0-104.37-18.88-143.75-50.44-1.31-1.06-2.62-2.12-3.91-3.21a230.73 230.73 0 0 1-45.48-51.42c-2.47-3.81-4.83-7.69-7.07-11.65-3.23-5.69-6.22-11.53-8.96-17.5-2.62-5.71-5.02-11.55-7.16-17.5h216.58c60.77 0 111.51-43.72 122.45-101.35.43-2.28.8-4.58 1.11-6.9.71-5.36 1.07-10.83 1.07-16.38V821.7c6.04 3.9 11.87 8.08 17.5 12.52 6.09 4.81 11.93 9.92 17.5 15.31 5.47 5.28 10.67 10.83 15.59 16.63 15.87 18.7 28.8 39.98 38.07 63.11.83 2.04 1.62 4.1 2.38 6.18 9.11 24.75 14.08 51.5 14.08 79.41Z" class="cls-3hol2"/><path d="M785.97 1093.15c-2.2 5.94-4.61 11.77-7.22 17.5-2.72 5.96-5.65 11.79-8.79 17.5a262.53 262.53 0 0 1-21.23 32.63 263.43 263.43 0 0 1-79.94 69.71c-1.94 1.1-3.9 2.18-5.88 3.23-36.66 19.48-78.49 30.52-122.89 30.52-144.82 0-262.22-117.41-262.22-262.23 0-4.18.1-8.35.29-12.48 1.31-28.01 7.02-54.87 16.45-79.9a260.151 260.151 0 0 1 17.5-37.26 260.23 260.23 0 0 1 17.5-26.77v122.92c0 8.79.91 17.37 2.66 25.65 11.85 56.46 62.03 98.98 121.97 98.98h331.8Z" class="cls-3hol3"/><path d="M332.2 994.17c-2.21.07-4.43.1-6.65.1-3.76 0-7.51-.09-11.23-.26-6.06-.28-12.06-.79-17.99-1.53-6.16-.75-12.24-1.74-18.24-2.95C169.7 967.54 88.12 871.72 88.12 756.84c0-92.74 53.17-173.07 130.7-212.14 9.01-4.55 18.35-8.53 27.97-11.91 3.05-1.07 6.12-2.08 9.22-3.02a234.04 234.04 0 0 1 38.53-8.35c5.77-.76 11.61-1.3 17.5-1.63 4.47-.25 8.98-.38 13.51-.38 1.33 0 2.66 0 3.99.04v449.07c0 8.79.91 17.37 2.66 25.65Z" class="cls-3hol2"/><path d="M238.1 561.65a194.507 194.507 0 0 1 17.91-31.88c10.79-15.57 23.75-29.36 38.53-41.01 5.58-4.41 11.42-8.51 17.5-12.28a190.19 190.19 0 0 1 17.5-9.67v-6.65c-6.02 2.82-11.85 5.91-17.5 9.28-6.06 3.61-11.9 7.52-17.5 11.74-18.83 14.14-34.98 31.56-47.75 51.61-5.28 8.29-9.99 17.04-14.07 26.19-.03.08-.07.15-.1.23-21.54 48.47-22.91 102.43-3.87 151.93 13.56 35.25 36.31 65.23 65.79 87.35 5.6 4.2 11.44 8.12 17.5 11.73 5.64 3.37 11.48 6.47 17.5 9.29v-6.65c-6.06-2.95-11.9-6.19-17.5-9.69-6.11-3.81-11.95-7.93-17.5-12.33-66.8-52.9-92.5-146.04-57.14-227.58.23-.54.46-1.07.7-1.61ZM1241.25 563.18c-3.81-4.33-7.77-8.55-11.88-12.66-18.97-18.97-40.29-34.73-63.3-47.02-5.73-3.07-11.57-5.92-17.5-8.54-5.74-2.55-11.58-4.89-17.5-7.02v6.53a258.236 258.236 0 0 1 35 16.04c26.95 14.84 51.01 34.31 71.1 57.33 40.13 45.93 64.47 106 64.47 171.64 0 74.68-31.5 142.14-81.91 189.79a261.796 261.796 0 0 1-53.66 39.19c-5.79 3.2-11.72 6.18-17.77 8.94-5.98 2.72-12.08 5.22-18.3 7.5-.31 2.32-.68 4.62-1.11 6.9 6.36-2.23 12.64-4.69 18.8-7.4 6.18-2.71 12.26-5.66 18.22-8.84 20.18-10.76 39.06-24.19 56.2-40.11a281.8 281.8 0 0 0 7.26-7c8.49-8.49 16.34-17.45 23.51-26.82 6.86-8.95 13.11-18.27 18.74-27.92 23.5-40.32 36.02-86.31 36.02-134.23 0-65.57-23.46-127.53-66.39-176.3Z" class="cls-3hol4"/><path d="M916.65 1093.15c-1.4 5.94-3.08 11.78-5.02 17.5-2.03 5.97-4.35 11.81-6.94 17.5-10.95 24.1-26.76 45.54-46.16 63.07a190.77 190.77 0 0 1-23.72 18.3c-21.48 14.05-45.94 23.9-72.21 28.38a191.04 191.04 0 0 1-32.3 2.73c-21.51 0-42.19-3.56-61.51-10.14-50.21-17.08-91.12-54.47-112.88-102.34-2.59-5.69-4.91-11.53-6.94-17.5-1.94-5.72-3.62-11.56-5.02-17.5h-5.14c1.36 5.94 3 11.78 4.89 17.5 1.97 5.97 4.21 11.8 6.73 17.5 21.48 48.73 62.2 87.15 112.48 105.57 21.03 7.71 43.73 11.91 67.39 11.91 11.34 0 22.45-.96 33.26-2.82 26.88-4.6 51.91-14.68 73.89-29.04 8.85-5.78 17.21-12.25 24.99-19.34 20.21-18.4 36.57-40.95 47.73-66.28 2.52-5.7 4.76-11.53 6.73-17.5a193.3 193.3 0 0 0 4.89-17.5h-5.14Z" class="cls-3hol5"/><path d="M1061.51 285.19c-3.22-7.65-6.89-15.11-10.97-22.37-10.04-17.88-22.6-34.48-37.49-49.38-26.74-26.74-59.01-45.95-94.22-56.57-20.99-6.34-43.04-9.62-65.59-9.62-41.84 0-81.95 11.29-116.83 32.44-15.45 9.35-29.88 20.65-42.99 33.75-13.15 13.16-24.49 27.65-33.87 43.18-3.45 5.7-6.63 11.54-9.55 17.5-2.79 5.72-5.35 11.56-7.64 17.5h8.73c2.42-5.97 5.09-11.8 8.01-17.5 3.08-6 6.43-11.84 10.03-17.5 20.45-32.18 49.11-58.66 83-76.47 30.24-15.9 64.64-24.9 101.11-24.9 19.16 0 37.75 2.48 55.47 7.15 55.14 14.51 101.8 50.14 130.79 97.67 4.15 6.81 7.94 13.86 11.34 21.13a215.9 215.9 0 0 1 9.02 22.45c3.49 1.67 6.89 3.49 10.2 5.46-2.39-8.14-5.24-16.12-8.55-23.92Z" class="cls-3hol2"/><circle cx="802.25" cy="1232.73" r="39.98" class="cls-3hol2"/><circle cx="217.86" cy="1039.13" r="29.67" class="cls-3hol4"/><path d="M831.24 1093.15c0 6.05-.78 11.91-2.24 17.5-1.63 6.22-4.1 12.1-7.3 17.5a68.602 68.602 0 0 1-8.65 11.65c-12.59 13.71-30.68 22.31-50.78 22.31-4.64 0-9.16-.46-13.54-1.33-19.54-3.89-36.1-16.03-45.9-32.63-3.2-5.4-5.67-11.28-7.3-17.5a69.142 69.142 0 0 1-2.24-17.5h137.95Z" class="cls-3hol5"/><circle cx="585.81" cy="157.41" r="22.82" class="cls-3hol5"/><circle cx="1282.38" cy="901.18" r="29.5" class="cls-3hol2"/><circle cx="165.72" cy="172.94" r="42.95" class="cls-3hol2"/><path d="M1061.51 285.19c-3.48-1.47-7.05-2.81-10.67-3.99-13.97-4.6-28.89-7.08-44.4-7.08H454.17c-56.84 0-105.88 33.36-128.61 81.56v.03c-8.67 18.37-13.52 38.87-13.52 60.53v552.28c0 8.7.78 17.22 2.28 25.49 12.01 66.33 70.05 116.64 139.85 116.64h552.27c73.12 0 133.36-55.23 141.25-126.25.26-2.32.46-4.65.61-7 .18-2.94.27-5.9.27-8.88V416.24c0-58.96-35.91-109.54-87.06-131.05Zm69.56 683.33c0 5.55-.36 11.02-1.07 16.38-.31 2.32-.68 4.62-1.11 6.9-10.94 57.63-61.68 101.35-122.45 101.35H454.17c-59.94 0-110.12-42.52-121.97-98.98-1.75-8.28-2.66-16.86-2.66-25.65V416.24c0-7.22.62-14.3 1.8-21.19 10.1-58.67 61.32-103.43 122.83-103.43h552.27c19.1 0 37.22 4.32 53.42 12.03 3.49 1.67 6.89 3.49 10.2 5.46 36.5 21.76 61.01 61.63 61.01 107.13v552.28Z" style="fill: rgb(255, 255, 255);"/><path d="M1050.54 262.82c-3.63-1.05-7.31-1.97-11.04-2.75a159.419 159.419 0 0 0-33.06-3.45H454.17c-49.56 0-93.9 22.7-123.21 58.23-22.74 27.6-36.41 62.93-36.41 101.39v552.28c0 8.14.61 16.14 1.79 23.96 11.6 76.69 77.96 135.67 157.84 135.67h552.27c85.66 0 155.78-67.82 159.47-152.59.11-2.33.16-4.68.16-7.04V416.24c0-72.73-48.89-134.25-115.53-153.42Zm80.53 705.7c0 5.55-.36 11.02-1.07 16.38-.31 2.32-.68 4.62-1.11 6.9-10.94 57.63-61.68 101.35-122.45 101.35H454.17c-59.94 0-110.12-42.52-121.97-98.98-1.75-8.28-2.66-16.86-2.66-25.65V416.24c0-7.22.62-14.3 1.8-21.19 10.1-58.67 61.32-103.43 122.83-103.43h552.27c19.1 0 37.22 4.32 53.42 12.03 3.49 1.67 6.89 3.49 10.2 5.46 36.5 21.76 61.01 61.63 61.01 107.13v552.28Z" class="cls-3hol5"/><g transform="translate(370, 340)scale(2.4)" fill="none"><svg width="300" height="300"><style>.background-color{ fill: #fff; }.dot-color{ fill: #000000; }.corners-square-color-0-0{ fill: #000000; }.corners-dot-color-0-0{ fill: #f97923; }.corners-square-color-1-0{ fill: #000000; }.corners-dot-color-1-0{ fill: #f97923; }.corners-square-color-0-1{ fill: #000000; }.corners-dot-color-0-1{ fill: #f97923; }</style><defs/><g class="dot-color"><path d="M 5 85v 10h 5a 5 5, 0, 0, 0, 0 -10" transform="rotate(-90,10,90)"/><path d="M 5 95v 10h 10a 10 10, 0, 0, 0, -10 -10" transform="rotate(180,10,100)"/><path d="M 5 115v 10h 5a 5 5, 0, 0, 0, 0 -10" transform="rotate(-90,10,120)"/><rect x="5" y="125" width="10" height="10" transform="rotate(0,10,130)"/><rect x="5" y="135" width="10" height="10" transform="rotate(0,10,140)"/><rect x="5" y="145" width="10" height="10" transform="rotate(0,10,150)"/><rect x="5" y="155" width="10" height="10" transform="rotate(0,10,160)"/><rect x="5" y="165" width="10" height="10" transform="rotate(0,10,170)"/><rect x="5" y="175" width="10" height="10" transform="rotate(0,10,180)"/><path d="M 5 185v 10h 10a 10 10, 0, 0, 0, -10 -10" transform="rotate(180,10,190)"/><path d="M 15 95v 10h 10a 10 10, 0, 0, 0, -10 -10" transform="rotate(0,20,100)"/><path d="M 15 105v 10h 10a 10 10, 0, 0, 0, -10 -10" transform="rotate(180,20,110)"/><rect x="15" y="125" width="10" height="10" transform="rotate(0,20,130)"/><path d="M 15 165v 10h 10a 10 10, 0, 0, 0, -10 -10" transform="rotate(0,20,170)"/><rect x="15" y="175" width="10" height="10" transform="rotate(0,20,180)"/><rect x="15" y="185" width="10" height="10" transform="rotate(0,20,190)"/><path d="M 15 195v 10h 10a 10 10, 0, 0, 0, -10 -10" transform="rotate(180,20,200)"/><path d="M 25 85v 10h 5a 5 5, 0, 0, 0, 0 -10" transform="rotate(180,30,90)"/><rect x="25" y="105" width="10" height="10" transform="rotate(0,30,110)"/><rect x="25" y="115" width="10" height="10" transform="rotate(0,30,120)"/><path d="M 25 125v 10h 10a 10 10, 0, 0, 0, -10 -10" transform="rotate(90,30,130)"/><path d="M 25 155v 10h 5a 5 5, 0, 0, 0, 0 -10" transform="rotate(180,30,160)"/><path d="M 25 175v 10h 5a 5 5, 0, 0, 0, 0 -10" transform="rotate(0,30,180)"/><path d="M 25 195v 10h 10a 10 10, 0, 0, 0, -10 -10" transform="rotate(0,30,200)"/><path d="M 25 205v 10h 5a 5 5, 0, 0, 0, 0 -10" transform="rotate(90,30,210)"/><path d="M 35 85v 10h 5a 5 5, 0, 0, 0, 0 -10" transform="rotate(0,40,90)"/><rect x="35" y="105" width="10" height="10" transform="rotate(0,40,110)"/><path d="M 35 115v 10h 10a 10 10, 0, 0, 0, -10 -10" transform="rotate(90,40,120)"/><circle cx="40" cy="140" r="5" transform="rotate(0,40,140)"/><path d="M 35 155v 10h 10a 10 10, 0, 0, 0, -10 -10" transform="rotate(0,40,160)"/><path d="M 35 165v 10h 10a 10 10, 0, 0, 0, -10 -10" transform="rotate(180,40,170)"/><circle cx="40" cy="190" r="5" transform="rotate(0,40,190)"/><path d="M 45 95v 10h 10a 10 10, 0, 0, 0, -10 -10" transform="rotate(-90,50,100)"/><rect x="45" y="105" width="10" height="10" transform="rotate(0,50,110)"/><rect x="45" y="165" width="10" height="10" transform="rotate(0,50,170)"/><circle cx="50" cy="210" r="5" transform="rotate(0,50,210)"/><path d="M 55 85v 10h 10a 10 10, 0, 0, 0, -10 -10" transform="rotate(-90,60,90)"/><rect x="55" y="95" width="10" height="10" transform="rotate(0,60,100)"/><rect x="55" y="105" width="10" height="10" transform="rotate(0,60,110)"/><path d="M 55 145v 10h 10a 10 10, 0, 0, 0, -10 -10" transform="rotate(-90,60,150)"/><rect x="55" y="155" width="10" height="10" transform="rotate(0,60,160)"/><rect x="55" y="165" width="10" height="10" transform="rotate(0,60,170)"/><circle cx="60" cy="200" r="5" transform="rotate(0,60,200)"/><rect x="65" y="85" width="10" height="10" transform="rotate(0,70,90)"/><path d="M 65 105v 10h 5a 5 5, 0, 0, 0, 0 -10" transform="rotate(0,70,110)"/><path d="M 65 125v 10h 5a 5 5, 0, 0, 0, 0 -10" transform="rotate(180,70,130)"/><rect x="65" y="145" width="10" height="10" transform="rotate(0,70,150)"/><path d="M 65 165v 10h 5a 5 5, 0, 0, 0, 0 -10" transform="rotate(0,70,170)"/><path d="M 65 185v 10h 5a 5 5, 0, 0, 0, 0 -10" transform="rotate(180,70,190)"/><path d="M 65 205v 10h 5a 5 5, 0, 0, 0, 0 -10" transform="rotate(180,70,210)"/><rect x="75" y="85" width="10" height="10" transform="rotate(0,80,90)"/><path d="M 75 95v 10h 5a 5 5, 0, 0, 0, 0 -10" transform="rotate(90,80,100)"/><rect x="75" y="125" width="10" height="10" transform="rotate(0,80,130)"/><path d="M 75 145v 10h 5a 5 5, 0, 0, 0, 0 -10" transform="rotate(0,80,150)"/><path d="M 75 175v 10h 10a 10 10, 0, 0, 0, -10 -10" transform="rotate(-90,80,180)"/><rect x="75" y="185" width="10" height="10" transform="rotate(0,80,190)"/><path d="M 75 205v 10h 5a 5 5, 0, 0, 0, 0 -10" transform="rotate(0,80,210)"/><circle cx="90" cy="20" r="5" transform="rotate(0,90,20)"/><circle cx="90" cy="40" r="5" transform="rotate(0,90,40)"/><path d="M 85 55v 10h 10a 10 10, 0, 0, 0, -10 -10" transform="rotate(-90,90,60)"/><rect x="85" y="65" width="10" height="10" transform="rotate(0,90,70)"/><rect x="85" y="75" width="10" height="10" transform="rotate(0,90,80)"/><rect x="85" y="85" width="10" height="10" transform="rotate(0,90,90)"/><path d="M 85 115v 10h 10a 10 10, 0, 0, 0, -10 -10" transform="rotate(-90,90,120)"/><rect x="85" y="125" width="10" height="10" transform="rotate(0,90,130)"/><rect x="85" y="175" width="10" height="10" transform="rotate(0,90,180)"/><rect x="85" y="185" width="10" height="10" transform="rotate(0,90,190)"/><path d="M 85 215v 10h 10a 10 10, 0, 0, 0, -10 -10" transform="rotate(-90,90,220)"/><rect x="85" y="225" width="10" height="10" transform="rotate(0,90,230)"/><path d="M 85 235v 10h 5a 5 5, 0, 0, 0, 0 -10" transform="rotate(90,90,240)"/><path d="M 85 255v 10h 5a 5 5, 0, 0, 0, 0 -10" transform="rotate(-90,90,260)"/><path d="M 85 265v 10h 10a 10 10, 0, 0, 0, -10 -10" transform="rotate(180,90,270)"/><path d="M 85 285v 10h 5a 5 5, 0, 0, 0, 0 -10" transform="rotate(180,90,290)"/><circle cx="100" cy="10" r="5" transform="rotate(0,100,10)"/><path d="M 95 45v 10h 5a 5 5, 0, 0, 0, 0 -10" transform="rotate(-90,100,50)"/><rect x="95" y="55" width="10" height="10" transform="rotate(0,100,60)"/><path d="M 95 85v 10h 5a 5 5, 0, 0, 0, 0 -10" transform="rotate(0,100,90)"/><path d="M 95 115v 10h 10a 10 10, 0, 0, 0, -10 -10" transform="rotate(0,100,120)"/><rect x="95" y="125" width="10" height="10" transform="rotate(0,100,130)"/><path d="M 95 135v 10h 5a 5 5, 0, 0, 0, 0 -10" transform="rotate(90,100,140)"/><circle cx="100" cy="160" r="5" transform="rotate(0,100,160)"/><path d="M 95 175v 10h 10a 10 10, 0, 0, 0, -10 -10" transform="rotate(0,100,180)"/><rect x="95" y="185" width="10" height="10" transform="rotate(0,100,190)"/><path d="M 95 195v 10h 10a 10 10, 0, 0, 0, -10 -10" transform="rotate(180,100,200)"/><path d="M 95 215v 10h 10a 10 10, 0, 0, 0, -10 -10" transform="rotate(0,100,220)"/><rect x="95" y="225" width="10" height="10" transform="rotate(0,100,230)"/><path d="M 95 265v 10h 5a 5 5, 0, 0, 0, 0 -10" transform="rotate(0,100,270)"/><path d="M 95 285v 10h 5a 5 5, 0, 0, 0, 0 -10" transform="rotate(0,100,290)"/><path d="M 105 35v 10h 5a 5 5, 0, 0, 0, 0 -10" transform="rotate(180,110,40)"/><path d="M 105 55v 10h 10a 10 10, 0, 0, 0, -10 -10" transform="rotate(0,110,60)"/><rect x="105" y="65" width="10" height="10" transform="rotate(0,110,70)"/><path d="M 105 75v 10h 5a 5 5, 0, 0, 0, 0 -10" transform="rotate(90,110,80)"/><path d="M 105 105v 10h 5a 5 5, 0, 0, 0, 0 -10" transform="rotate(180,110,110)"/><path d="M 105 125v 10h 5a 5 5, 0, 0, 0, 0 -10" transform="rotate(0,110,130)"/><rect x="105" y="185" width="10" height="10" transform="rotate(0,110,190)"/><rect x="105" y="195" width="10" height="10" transform="rotate(0,110,200)"/><rect x="105" y="225" width="10" height="10" transform="rotate(0,110,230)"/><path d="M 105 235v 10h 10a 10 10, 0, 0, 0, -10 -10" transform="rotate(180,110,240)"/><path d="M 105 275v 10h 5a 5 5, 0, 0, 0, 0 -10" transform="rotate(180,110,280)"/><path d="M 115 25v 10h 5a 5 5, 0, 0, 0, 0 -10" transform="rotate(-90,120,30)"/><path d="M 115 35v 10h 10a 10 10, 0, 0, 0, -10 -10" transform="rotate(90,120,40)"/><path d="M 115 95v 10h 5a 5 5, 0, 0, 0, 0 -10" transform="rotate(-90,120,100)"/><rect x="115" y="105" width="10" height="10" transform="rotate(0,120,110)"/><path d="M 115 145v 10h 10a 10 10, 0, 0, 0, -10 -10" transform="rotate(-90,120,150)"/><rect x="115" y="155" width="10" height="10" transform="rotate(0,120,160)"/><path d="M 115 165v 10h 5a 5 5, 0, 0, 0, 0 -10" transform="rotate(90,120,170)"/><path d="M 115 185v 10h 10a 10 10, 0, 0, 0, -10 -10" transform="rotate(0,120,190)"/><path d="M 115 195v 10h 10a 10 10, 0, 0, 0, -10 -10" transform="rotate(90,120,200)"/><path d="M 115 215v 10h 5a 5 5, 0, 0, 0, 0 -10" transform="rotate(-90,120,220)"/><rect x="115" y="225" width="10" height="10" transform="rotate(0,120,230)"/><rect x="115" y="235" width="10" height="10" transform="rotate(0,120,240)"/><rect x="115" y="245" width="10" height="10" transform="rotate(0,120,250)"/><rect x="115" y="255" width="10" height="10" transform="rotate(0,120,260)"/><rect x="115" y="265" width="10" height="10" transform="rotate(0,120,270)"/><path d="M 115 275v 10h 10a 10 10, 0, 0, 0, -10 -10" transform="rotate(90,120,280)"/><circle cx="130" cy="20" r="5" transform="rotate(0,130,20)"/><circle cx="130" cy="70" r="5" transform="rotate(0,130,70)"/><circle cx="130" cy="90" r="5" transform="rotate(0,130,90)"/><rect x="125" y="105" width="10" height="10" transform="rotate(0,130,110)"/><path d="M 125 115v 10h 10a 10 10, 0, 0, 0, -10 -10" transform="rotate(180,130,120)"/><rect x="125" y="145" width="10" height="10" transform="rotate(0,130,150)"/><circle cx="130" cy="180" r="5" transform="rotate(0,130,180)"/><path d="M 125 205v 10h 5a 5 5, 0, 0, 0, 0 -10" transform="rotate(180,130,210)"/><path d="M 125 225v 10h 10a 10 10, 0, 0, 0, -10 -10" transform="rotate(0,130,230)"/><rect x="125" y="235" width="10" height="10" transform="rotate(0,130,240)"/><rect x="125" y="255" width="10" height="10" transform="rotate(0,130,260)"/><path d="M 135 25v 10h 10a 10 10, 0, 0, 0, -10 -10" transform="rotate(-90,140,30)"/><path d="M 135 35v 10h 10a 10 10, 0, 0, 0, -10 -10" transform="rotate(180,140,40)"/><rect x="135" y="105" width="10" height="10" transform="rotate(0,140,110)"/><rect x="135" y="115" width="10" height="10" transform="rotate(0,140,120)"/><rect x="135" y="125" width="10" height="10" transform="rotate(0,140,130)"/><rect x="135" y="135" width="10" height="10" transform="rotate(0,140,140)"/><rect x="135" y="145" width="10" height="10" transform="rotate(0,140,150)"/><path d="M 135 155v 10h 5a 5 5, 0, 0, 0, 0 -10" transform="rotate(90,140,160)"/><path d="M 135 185v 10h 5a 5 5, 0, 0, 0, 0 -10" transform="rotate(-90,140,190)"/><rect x="135" y="195" width="10" height="10" transform="rotate(0,140,200)"/><rect x="135" y="205" width="10" height="10" transform="rotate(0,140,210)"/><path d="M 135 215v 10h 10a 10 10, 0, 0, 0, -10 -10" transform="rotate(180,140,220)"/><path d="M 135 235v 10h 5a 5 5, 0, 0, 0, 0 -10" transform="rotate(0,140,240)"/><path d="M 135 255v 10h 5a 5 5, 0, 0, 0, 0 -10" transform="rotate(0,140,260)"/><circle cx="140" cy="280" r="5" transform="rotate(0,140,280)"/><path d="M 145 5v 10h 10a 10 10, 0, 0, 0, -10 -10" transform="rotate(-90,150,10)"/><rect x="145" y="15" width="10" height="10" transform="rotate(0,150,20)"/><rect x="145" y="25" width="10" height="10" transform="rotate(0,150,30)"/><path d="M 145 35v 10h 10a 10 10, 0, 0, 0, -10 -10" transform="rotate(90,150,40)"/><path d="M 145 65v 10h 5a 5 5, 0, 0, 0, 0 -10" transform="rotate(-90,150,70)"/><rect x="145" y="75" width="10" height="10" transform="rotate(0,150,80)"/><path d="M 145 85v 10h 10a 10 10, 0, 0, 0, -10 -10" transform="rotate(180,150,90)"/><rect x="145" y="105" width="10" height="10" transform="rotate(0,150,110)"/><path d="M 145 125v 10h 5a 5 5, 0, 0, 0, 0 -10" transform="rotate(0,150,130)"/><rect x="145" y="145" width="10" height="10" transform="rotate(0,150,150)"/><circle cx="150" cy="170" r="5" transform="rotate(0,150,170)"/><rect x="145" y="205" width="10" height="10" transform="rotate(0,150,210)"/><rect x="145" y="215" width="10" height="10" transform="rotate(0,150,220)"/><path d="M 145 225v 10h 10a 10 10, 0, 0, 0, -10 -10" transform="rotate(180,150,230)"/><circle cx="150" cy="290" r="5" transform="rotate(0,150,290)"/><path d="M 155 5v 10h 5a 5 5, 0, 0, 0, 0 -10" transform="rotate(0,160,10)"/><path d="M 155 45v 10h 5a 5 5, 0, 0, 0, 0 -10" transform="rotate(-90,160,50)"/><path d="M 155 55v 10h 5a 5 5, 0, 0, 0, 0 -10" transform="rotate(90,160,60)"/><rect x="155" y="85" width="10" height="10" transform="rotate(0,160,90)"/><path d="M 155 105v 10h 10a 10 10, 0, 0, 0, -10 -10" transform="rotate(0,160,110)"/><path d="M 155 115v 10h 10a 10 10, 0, 0, 0, -10 -10" transform="rotate(180,160,120)"/><path d="M 155 145v 10h 5a 5 5, 0, 0, 0, 0 -10" transform="rotate(0,160,150)"/><path d="M 155 195v 10h 5a 5 5, 0, 0, 0, 0 -10" transform="rotate(-90,160,200)"/><path d="M 155 205v 10h 10a 10 10, 0, 0, 0, -10 -10" transform="rotate(90,160,210)"/><path d="M 155 225v 10h 10a 10 10, 0, 0, 0, -10 -10" transform="rotate(0,160,230)"/><path d="M 155 235v 10h 5a 5 5, 0, 0, 0, 0 -10" transform="rotate(90,160,240)"/><path d="M 165 15v 10h 10a 10 10, 0, 0, 0, -10 -10" transform="rotate(-90,170,20)"/><rect x="165" y="25" width="10" height="10" transform="rotate(0,170,30)"/><path d="M 165 35v 10h 10a 10 10, 0, 0, 0, -10 -10" transform="rotate(180,170,40)"/><circle cx="170" cy="70" r="5" transform="rotate(0,170,70)"/><path d="M 165 85v 10h 10a 10 10, 0, 0, 0, -10 -10" transform="rotate(0,170,90)"/><path d="M 165 95v 10h 10a 10 10, 0, 0, 0, -10 -10" transform="rotate(180,170,100)"/><path d="M 165 115v 10h 10a 10 10, 0, 0, 0, -10 -10" transform="rotate(0,170,120)"/><path d="M 165 125v 10h 5a 5 5, 0, 0, 0, 0 -10" transform="rotate(90,170,130)"/><path d="M 165 155v 10h 10a 10 10, 0, 0, 0, -10 -10" transform="rotate(-90,170,160)"/><path d="M 165 165v 10h 5a 5 5, 0, 0, 0, 0 -10" transform="rotate(90,170,170)"/><circle cx="170" cy="220" r="5" transform="rotate(0,170,220)"/><path d="M 165 275v 10h 10a 10 10, 0, 0, 0, -10 -10" transform="rotate(-90,170,280)"/><path d="M 165 285v 10h 10a 10 10, 0, 0, 0, -10 -10" transform="rotate(180,170,290)"/><path d="M 175 15v 10h 10a 10 10, 0, 0, 0, -10 -10" transform="rotate(0,180,20)"/><rect x="175" y="25" width="10" height="10" transform="rotate(0,180,30)"/><rect x="175" y="35" width="10" height="10" transform="rotate(0,180,40)"/><path d="M 175 45v 10h 10a 10 10, 0, 0, 0, -10 -10" transform="rotate(180,180,50)"/><circle cx="180" cy="80" r="5" transform="rotate(0,180,80)"/><rect x="175" y="95" width="10" height="10" transform="rotate(0,180,100)"/><path d="M 175 105v 10h 5a 5 5, 0, 0, 0, 0 -10" transform="rotate(90,180,110)"/><path d="M 175 135v 10h 5a 5 5, 0, 0, 0, 0 -10" transform="rotate(180,180,140)"/><path d="M 175 155v 10h 5a 5 5, 0, 0, 0, 0 -10" transform="rotate(0,180,160)"/><path d="M 175 235v 10h 5a 5 5, 0, 0, 0, 0 -10" transform="rotate(180,180,240)"/><path d="M 175 255v 10h 10a 10 10, 0, 0, 0, -10 -10" transform="rotate(-90,180,260)"/><rect x="175" y="265" width="10" height="10" transform="rotate(0,180,270)"/><rect x="175" y="275" width="10" height="10" transform="rotate(0,180,280)"/><rect x="175" y="285" width="10" height="10" transform="rotate(0,180,290)"/><circle cx="190" cy="10" r="5" transform="rotate(0,190,10)"/><rect x="185" y="25" width="10" height="10" transform="rotate(0,190,30)"/><rect x="185" y="35" width="10" height="10" transform="rotate(0,190,40)"/><rect x="185" y="45" width="10" height="10" transform="rotate(0,190,50)"/><circle cx="190" cy="70" r="5" transform="rotate(0,190,70)"/><path d="M 185 95v 10h 5a 5 5, 0, 0, 0, 0 -10" transform="rotate(0,190,100)"/><path d="M 185 125v 10h 5a 5 5, 0, 0, 0, 0 -10" transform="rotate(-90,190,130)"/><rect x="185" y="135" width="10" height="10" transform="rotate(0,190,140)"/><path d="M 185 145v 10h 5a 5 5, 0, 0, 0, 0 -10" transform="rotate(90,190,150)"/><path d="M 185 175v 10h 10a 10 10, 0, 0, 0, -10 -10" transform="rotate(-90,190,180)"/><path d="M 185 185v 10h 5a 5 5, 0, 0, 0, 0 -10" transform="rotate(90,190,190)"/><path d="M 185 205v 10h 5a 5 5, 0, 0, 0, 0 -10" transform="rotate(-90,190,210)"/><path d="M 185 215v 10h 5a 5 5, 0, 0, 0, 0 -10" transform="rotate(90,190,220)"/><rect x="185" y="235" width="10" height="10" transform="rotate(0,190,240)"/><rect x="185" y="245" width="10" height="10" transform="rotate(0,190,250)"/><rect x="185" y="255" width="10" height="10" transform="rotate(0,190,260)"/><rect x="185" y="265" width="10" height="10" transform="rotate(0,190,270)"/><rect x="185" y="275" width="10" height="10" transform="rotate(0,190,280)"/><path d="M 185 285v 10h 10a 10 10, 0, 0, 0, -10 -10" transform="rotate(90,190,290)"/><path d="M 195 25v 10h 10a 10 10, 0, 0, 0, -10 -10" transform="rotate(0,200,30)"/><rect x="195" y="35" width="10" height="10" transform="rotate(0,200,40)"/><path d="M 195 45v 10h 10a 10 10, 0, 0, 0, -10 -10" transform="rotate(90,200,50)"/><path d="M 195 75v 10h 5a 5 5, 0, 0, 0, 0 -10" transform="rotate(180,200,80)"/><path d="M 195 115v 10h 5a 5 5, 0, 0, 0, 0 -10" transform="rotate(180,200,120)"/><path d="M 195 135v 10h 5a 5 5, 0, 0, 0, 0 -10" transform="rotate(0,200,140)"/><path d="M 195 155v 10h 5a 5 5, 0, 0, 0, 0 -10" transform="rotate(-90,200,160)"/><rect x="195" y="165" width="10" height="10" transform="rotate(0,200,170)"/><path d="M 195 175v 10h 10a 10 10, 0, 0, 0, -10 -10" transform="rotate(90,200,180)"/><rect x="195" y="235" width="10" height="10" transform="rotate(0,200,240)"/><path d="M 195 255v 10h 5a 5 5, 0, 0, 0, 0 -10" transform="rotate(0,200,260)"/><path d="M 195 275v 10h 5a 5 5, 0, 0, 0, 0 -10" transform="rotate(0,200,280)"/><circle cx="210" cy="10" r="5" transform="rotate(0,210,10)"/><path d="M 205 65v 10h 5a 5 5, 0, 0, 0, 0 -10" transform="rotate(-90,210,70)"/><rect x="205" y="75" width="10" height="10" transform="rotate(0,210,80)"/><path d="M 205 85v 10h 10a 10 10, 0, 0, 0, -10 -10" transform="rotate(180,210,90)"/><rect x="205" y="115" width="10" height="10" transform="rotate(0,210,120)"/><path d="M 205 125v 10h 5a 5 5, 0, 0, 0, 0 -10" transform="rotate(90,210,130)"/><circle cx="210" cy="150" r="5" transform="rotate(0,210,150)"/><rect x="205" y="165" width="10" height="10" transform="rotate(0,210,170)"/><path d="M 205 185v 10h 5a 5 5, 0, 0, 0, 0 -10" transform="rotate(-90,210,190)"/><rect x="205" y="195" width="10" height="10" transform="rotate(0,210,200)"/><rect x="205" y="205" width="10" height="10" transform="rotate(0,210,210)"/><rect x="205" y="215" width="10" height="10" transform="rotate(0,210,220)"/><rect x="205" y="225" width="10" height="10" transform="rotate(0,210,230)"/><rect x="205" y="235" width="10" height="10" transform="rotate(0,210,240)"/><path d="M 205 245v 10h 10a 10 10, 0, 0, 0, -10 -10" transform="rotate(180,210,250)"/><rect x="215" y="85" width="10" height="10" transform="rotate(0,220,90)"/><rect x="215" y="95" width="10" height="10" transform="rotate(0,220,100)"/><rect x="215" y="105" width="10" height="10" transform="rotate(0,220,110)"/><path d="M 215 115v 10h 10a 10 10, 0, 0, 0, -10 -10" transform="rotate(90,220,120)"/><rect x="215" y="165" width="10" height="10" transform="rotate(0,220,170)"/><path d="M 215 175v 10h 5a 5 5, 0, 0, 0, 0 -10" transform="rotate(90,220,180)"/><path d="M 215 195v 10h 10a 10 10, 0, 0, 0, -10 -10" transform="rotate(0,220,200)"/><rect x="215" y="205" width="10" height="10" transform="rotate(0,220,210)"/><rect x="215" y="245" width="10" height="10" transform="rotate(0,220,250)"/><path d="M 215 275v 10h 10a 10 10, 0, 0, 0, -10 -10" transform="rotate(-90,220,280)"/><path d="M 215 285v 10h 5a 5 5, 0, 0, 0, 0 -10" transform="rotate(90,220,290)"/><rect x="225" y="85" width="10" height="10" transform="rotate(0,230,90)"/><path d="M 225 135v 10h 5a 5 5, 0, 0, 0, 0 -10" transform="rotate(180,230,140)"/><path d="M 225 165v 10h 5a 5 5, 0, 0, 0, 0 -10" transform="rotate(0,230,170)"/><path d="M 225 185v 10h 5a 5 5, 0, 0, 0, 0 -10" transform="rotate(180,230,190)"/><rect x="225" y="205" width="10" height="10" transform="rotate(0,230,210)"/><circle cx="230" cy="230" r="5" transform="rotate(0,230,230)"/><rect x="225" y="245" width="10" height="10" transform="rotate(0,230,250)"/><rect x="225" y="255" width="10" height="10" transform="rotate(0,230,260)"/><rect x="225" y="265" width="10" height="10" transform="rotate(0,230,270)"/><path d="M 225 275v 10h 10a 10 10, 0, 0, 0, -10 -10" transform="rotate(90,230,280)"/><path d="M 235 85v 10h 5a 5 5, 0, 0, 0, 0 -10" transform="rotate(0,240,90)"/><circle cx="240" cy="110" r="5" transform="rotate(0,240,110)"/><path d="M 235 125v 10h 10a 10 10, 0, 0, 0, -10 -10" transform="rotate(-90,240,130)"/><path d="M 235 135v 10h 10a 10 10, 0, 0, 0, -10 -10" transform="rotate(90,240,140)"/><rect x="235" y="185" width="10" height="10" transform="rotate(0,240,190)"/><rect x="235" y="205" width="10" height="10" transform="rotate(0,240,210)"/><rect x="235" y="245" width="10" height="10" transform="rotate(0,240,250)"/><path d="M 235 265v 10h 5a 5 5, 0, 0, 0, 0 -10" transform="rotate(0,240,270)"/><circle cx="240" cy="290" r="5" transform="rotate(0,240,290)"/><path d="M 245 95v 10h 5a 5 5, 0, 0, 0, 0 -10" transform="rotate(180,250,100)"/><path d="M 245 115v 10h 10a 10 10, 0, 0, 0, -10 -10" transform="rotate(-90,250,120)"/><rect x="245" y="125" width="10" height="10" transform="rotate(0,250,130)"/><path d="M 245 145v 10h 5a 5 5, 0, 0, 0, 0 -10" transform="rotate(180,250,150)"/><circle cx="250" cy="170" r="5" transform="rotate(0,250,170)"/><rect x="245" y="185" width="10" height="10" transform="rotate(0,250,190)"/><rect x="245" y="205" width="10" height="10" transform="rotate(0,250,210)"/><rect x="245" y="215" width="10" height="10" transform="rotate(0,250,220)"/><rect x="245" y="225" width="10" height="10" transform="rotate(0,250,230)"/><rect x="245" y="235" width="10" height="10" transform="rotate(0,250,240)"/><rect x="245" y="245" width="10" height="10" transform="rotate(0,250,250)"/><path d="M 245 255v 10h 5a 5 5, 0, 0, 0, 0 -10" transform="rotate(90,250,260)"/><circle cx="250" cy="280" r="5" transform="rotate(0,250,280)"/><path d="M 255 85v 10h 5a 5 5, 0, 0, 0, 0 -10" transform="rotate(-90,260,90)"/><rect x="255" y="95" width="10" height="10" transform="rotate(0,260,100)"/><path d="M 255 115v 10h 10a 10 10, 0, 0, 0, -10 -10" transform="rotate(0,260,120)"/><path d="M 255 125v 10h 10a 10 10, 0, 0, 0, -10 -10" transform="rotate(90,260,130)"/><rect x="255" y="145" width="10" height="10" transform="rotate(0,260,150)"/><path d="M 255 155v 10h 10a 10 10, 0, 0, 0, -10 -10" transform="rotate(180,260,160)"/><path d="M 255 185v 10h 10a 10 10, 0, 0, 0, -10 -10" transform="rotate(0,260,190)"/><rect x="255" y="195" width="10" height="10" transform="rotate(0,260,200)"/><rect x="255" y="205" width="10" height="10" transform="rotate(0,260,210)"/><rect x="255" y="215" width="10" height="10" transform="rotate(0,260,220)"/><path d="M 255 225v 10h 10a 10 10, 0, 0, 0, -10 -10" transform="rotate(90,260,230)"/><rect x="255" y="245" width="10" height="10" transform="rotate(0,260,250)"/><path d="M 255 285v 10h 5a 5 5, 0, 0, 0, 0 -10" transform="rotate(180,260,290)"/><rect x="265" y="95" width="10" height="10" transform="rotate(0,270,100)"/><path d="M 265 105v 10h 10a 10 10, 0, 0, 0, -10 -10" transform="rotate(180,270,110)"/><path d="M 265 135v 10h 10a 10 10, 0, 0, 0, -10 -10" transform="rotate(-90,270,140)"/><rect x="265" y="145" width="10" height="10" transform="rotate(0,270,150)"/><rect x="265" y="155" width="10" height="10" transform="rotate(0,270,160)"/><path d="M 265 165v 10h 10a 10 10, 0, 0, 0, -10 -10" transform="rotate(180,270,170)"/><path d="M 265 195v 10h 10a 10 10, 0, 0, 0, -10 -10" transform="rotate(0,270,200)"/><path d="M 265 205v 10h 10a 10 10, 0, 0, 0, -10 -10" transform="rotate(90,270,210)"/><path d="M 265 245v 10h 5a 5 5, 0, 0, 0, 0 -10" transform="rotate(0,270,250)"/><circle cx="270" cy="270" r="5" transform="rotate(0,270,270)"/><path d="M 265 285v 10h 5a 5 5, 0, 0, 0, 0 -10" transform="rotate(0,270,290)"/><path d="M 275 85v 10h 5a 5 5, 0, 0, 0, 0 -10" transform="rotate(-90,280,90)"/><rect x="275" y="95" width="10" height="10" transform="rotate(0,280,100)"/><rect x="275" y="105" width="10" height="10" transform="rotate(0,280,110)"/><path d="M 275 125v 10h 5a 5 5, 0, 0, 0, 0 -10" transform="rotate(-90,280,130)"/><rect x="275" y="135" width="10" height="10" transform="rotate(0,280,140)"/><path d="M 275 145v 10h 10a 10 10, 0, 0, 0, -10 -10" transform="rotate(90,280,150)"/><path d="M 275 165v 10h 10a 10 10, 0, 0, 0, -10 -10" transform="rotate(0,280,170)"/><path d="M 275 175v 10h 10a 10 10, 0, 0, 0, -10 -10" transform="rotate(180,280,180)"/><path d="M 275 215v 10h 5a 5 5, 0, 0, 0, 0 -10" transform="rotate(-90,280,220)"/><rect x="275" y="225" width="10" height="10" transform="rotate(0,280,230)"/><path d="M 275 235v 10h 5a 5 5, 0, 0, 0, 0 -10" transform="rotate(90,280,240)"/><circle cx="280" cy="260" r="5" transform="rotate(0,280,260)"/><path d="M 275 275v 10h 5a 5 5, 0, 0, 0, 0 -10" transform="rotate(180,280,280)"/><path d="M 285 95v 10h 10a 10 10, 0, 0, 0, -10 -10" transform="rotate(0,290,100)"/><path d="M 285 105v 10h 10a 10 10, 0, 0, 0, -10 -10" transform="rotate(90,290,110)"/><path d="M 285 135v 10h 5a 5 5, 0, 0, 0, 0 -10" transform="rotate(0,290,140)"/><circle cx="290" cy="160" r="5" transform="rotate(0,290,160)"/><path d="M 285 175v 10h 5a 5 5, 0, 0, 0, 0 -10" transform="rotate(0,290,180)"/><circle cx="290" cy="210" r="5" transform="rotate(0,290,210)"/><path d="M 285 225v 10h 5a 5 5, 0, 0, 0, 0 -10" transform="rotate(0,290,230)"/><circle cx="290" cy="250" r="5" transform="rotate(0,290,250)"/><path d="M 285 275v 10h 5a 5 5, 0, 0, 0, 0 -10" transform="rotate(0,290,280)"/></g><g class="corners-square-color-0-0"><path clip-rule="evenodd" d="M 5 30v 20a 25 25, 0, 0, 0, 25 25h 20a 25 25, 0, 0, 0, 25 -25v -20a 25 25, 0, 0, 0, -25 -25h -20a 25 25, 0, 0, 0, -25 25M 30 15h 20a 15 15, 0, 0, 1, 15 15v 20a 15 15, 0, 0, 1, -15 15h -20a 15 15, 0, 0, 1, -15 -15v -20a 15 15, 0, 0, 1, 15 -15" transform="rotate(0,40,40)"/></g><g class="corners-dot-color-0-0"><circle cx="40" cy="40" r="15" transform="rotate(0,40,40)"/></g><g class="corners-square-color-1-0"><path clip-rule="evenodd" d="M 225 30v 20a 25 25, 0, 0, 0, 25 25h 20a 25 25, 0, 0, 0, 25 -25v -20a 25 25, 0, 0, 0, -25 -25h -20a 25 25, 0, 0, 0, -25 25M 250 15h 20a 15 15, 0, 0, 1, 15 15v 20a 15 15, 0, 0, 1, -15 15h -20a 15 15, 0, 0, 1, -15 -15v -20a 15 15, 0, 0, 1, 15 -15" transform="rotate(90,260,40)"/></g><g class="corners-dot-color-1-0"><circle cx="260" cy="40" r="15" transform="rotate(90,260,40)"/></g><g class="corners-square-color-0-1"><path clip-rule="evenodd" d="M 5 250v 20a 25 25, 0, 0, 0, 25 25h 20a 25 25, 0, 0, 0, 25 -25v -20a 25 25, 0, 0, 0, -25 -25h -20a 25 25, 0, 0, 0, -25 25M 30 235h 20a 15 15, 0, 0, 1, 15 15v 20a 15 15, 0, 0, 1, -15 15h -20a 15 15, 0, 0, 1, -15 -15v -20a 15 15, 0, 0, 1, 15 -15" transform="rotate(-90,40,260)"/></g><g class="corners-dot-color-0-1"><circle cx="40" cy="260" r="15" transform="rotate(-90,40,260)"/></g></svg></g></g></svg></svg>